<?xml version="1.0" encoding="UTF-8" standalone="no"?><!DOCTYPE svg PUBLIC "-//W3C//DTD SVG 1.1//EN" "http://www.w3.org/Graphics/SVG/1.1/DTD/svg11.dtd"><svg width="100%" height="100%" viewBox="0 0 1238 875" version="1.1" xmlns="http://www.w3.org/2000/svg" xmlns:xlink="http://www.w3.org/1999/xlink" xml:space="preserve" xmlns:serif="http://www.serif.com/" style="fill-rule:evenodd;clip-rule:evenodd;stroke-linecap:round;stroke-linejoin:round;stroke-miterlimit:1.5;"><g id="LOGO"><ellipse cx="618.774" cy="692.467" rx="618.774" ry="182.168" style="fill:#8be5f7;fill-opacity:0.96;"/><ellipse cx="626.635" cy="692.599" rx="544.603" ry="149.044" style="fill:#5dc7dc;fill-opacity:0.96;"/><ellipse cx="629.387" cy="693.313" rx="463.87" ry="114.796" style="fill:#0592ae;fill-opacity:0.96;"/><ellipse cx="641.036" cy="684.829" rx="375.873" ry="86.917" style="fill:#0c8199;fill-opacity:0.96;"/><g><g id="body"><circle cx="463.219" cy="87.301" r="40.261" style="fill:#0babcb;stroke:#0d6476;stroke-width:33.33px;"/><circle cx="834.48" cy="81.353" r="40.261" style="fill:#0babcb;stroke:#0d6476;stroke-width:33.33px;"/><path d="M902.841,265.831c0,-137.518 -111.647,-249.164 -249.164,-249.164c-137.518,0 -249.165,111.646 -249.165,249.164l-5.214,424.11l97.739,13.174l160.254,3.422l125.024,-3.506l119.369,-13.673l1.157,-423.527Z" style="fill:#0babcb;stroke:#0d6476;stroke-width:33.33px;"/><path d="M784.122,543.415c0,-74.147 -60.197,-134.345 -134.344,-134.345c-74.147,0 -134.345,60.198 -134.345,134.345l-0.977,161.248l138.314,11.684l132.844,-6.318l-1.492,-166.614Z" style="fill:#0dcaf2;stroke:#0d6476;stroke-width:8.33px;"/><path d="M591.903,279.081c11.343,-6.323 106.678,-7.005 118.333,-1.699c8.642,3.934 5.044,17.678 5.044,23.092c0,12.715 -28.346,30.927 -63.445,30.927c-35.099,0 -63.745,-18.212 -63.745,-30.927c0,-4.619 -2.659,-17.786 3.813,-21.393Z" style="fill:#0dcaf2;stroke:#0d6476;stroke-width:8.33px;"/><path d="M651.167,175.1c52.539,0 89.78,27.664 97.508,62.932c3.584,16.36 11.203,72.976 -8.342,70.674c-13.801,-1.625 -19.076,-4.481 -33.756,-7.553c-18.133,-3.794 -42.39,-3.681 -57.143,-3.681c-13.998,0 -36.798,0.672 -54.108,3.326c-13.358,2.048 -22.093,7.653 -32.34,8.831c-22.219,2.555 -17.029,-50.721 -15.429,-69.131c3.108,-35.775 51.07,-65.398 103.61,-65.398Z" style="fill:#0dcaf2;stroke:#0d6476;stroke-width:8.33px;"/><path d="M651.485,198.929c9.472,0 26.511,-0.288 33.292,3.297c8.714,4.607 5.924,14.017 5.924,21.81c0,6.11 -3.197,13.056 -8.872,17.411c-7.196,5.523 -49.286,5.609 -56.176,1.768c-8.257,-4.605 -13.384,-11.624 -13.384,-19.179c0,-7.585 -2.556,-16.418 5.759,-21.023c6.876,-3.808 23.661,-4.084 33.457,-4.084Z" style="fill:#0d6476;"/><rect x="644.655" y="242.235" width="13.758" height="51.998" style="fill:#0d6476;"/><g id="left-whiskers" serif:id="left whiskers"><path d="M600.868,273.982l-134.04,6.647" style="fill:#11849b;stroke:#0d6476;stroke-width:8.33px;"/><path d="M584.628,260.85l-133.715,-15.124" style="fill:#11849b;stroke:#0d6476;stroke-width:8.33px;"/><path d="M599.572,250.143l-129.22,-26.791" style="fill:#11849b;stroke:#0d6476;stroke-width:8.33px;"/></g><g id="left-whiskers1" serif:id="left whiskers"><path d="M704.047,273.331l134.039,6.647" style="fill:#11849b;stroke:#0d6476;stroke-width:8.33px;"/><path d="M720.286,260.199l133.715,-15.124" style="fill:#11849b;stroke:#0d6476;stroke-width:8.33px;"/><path d="M705.342,249.492l129.22,-26.791" style="fill:#11849b;stroke:#0d6476;stroke-width:8.33px;"/></g><g id="Eyes"><g><circle cx="566.997" cy="136.505" r="16.803"/><circle cx="737.522" cy="137.733" r="16.803"/></g><ellipse cx="570.99" cy="133.443" rx="5.334" ry="5.597" style="fill:#fff;"/><ellipse cx="732.391" cy="134.584" rx="5.334" ry="5.597" style="fill:#fff;"/></g></g><path d="M647.042,687.78c167.227,0 255.811,-24.448 255.811,-9.441c0,15.007 -88.627,48.74 -255.854,48.74c-167.227,0 -249.075,-32.206 -249.075,-47.213c0,-15.008 81.891,7.914 249.118,7.914Z" style="fill:#0d6476;"/></g></g></svg>